<svg t="1628735927054" class="icon" viewBox="0 0 1024 1024" version="1.1" xmlns="http://www.w3.org/2000/svg" p-id="17031" width="200" height="200"><path d="M0 512.309598A511.690402 511.690402 0 1 0 511.690402 0.619197 511.690402 511.690402 0 0 0 0 512.309598z" fill="#EDA337" p-id="17032"></path><path d="M1013.146995 408.948137a511.690402 511.690402 0 1 0-896.481583 427.773176A601.031546 601.031546 0 0 0 409.352321 911.428112c300.873956 0 550.578872-216.95673 603.794674-502.479975z" fill="#FFB94A" p-id="17033"></path><path d="M511.690402 778.388607a268.842137 268.842137 0 0 1-266.079009-225.143777 35.818328 35.818328 0 0 1 35.818328-40.935232h460.521361a35.818328 35.818328 0 0 1 35.818329 40.935232 268.842137 268.842137 0 0 1-266.079009 225.143777z" fill="#7F2F16" p-id="17034"></path><path d="M741.951082 512.309598H281.429721a35.818328 35.818328 0 0 0-35.818328 40.935232 158.624025 158.624025 0 0 0 4.093523 21.490997H772.652507a158.624025 158.624025 0 0 0 4.093523-21.490997 35.050793 35.050793 0 0 0-34.794948-40.935232z" fill="#FFFFFF" p-id="17035"></path><path d="M587.420581 636.138675a94.458048 94.458048 0 0 0-75.730179 38.888471 92.76947 92.76947 0 0 0-167.834452 45.028755 270.633053 270.633053 0 0 0 335.668903 0 92.411287 92.411287 0 0 0-92.104272-83.917226z" fill="#F74141" p-id="17036"></path><path d="M368.417089 430.439134a20.467616 20.467616 0 0 1-20.467616-20.467616 81.870464 81.870464 0 0 0-163.740928 0 20.467616 20.467616 0 0 1-40.935233 0 122.805696 122.805696 0 0 1 245.611393 0 20.467616 20.467616 0 0 1-20.467616 20.467616z m491.222786 0a20.467616 20.467616 0 0 1-20.467616-20.467616 81.870464 81.870464 0 0 0-163.740929 0 20.467616 20.467616 0 0 1-40.935232 0 122.805696 122.805696 0 0 1 245.611393 0 20.467616 20.467616 0 0 1-20.467616 20.467616z" fill="#7F2F16" p-id="17037"></path></svg>