<svg t="1628668088456" class="icon" viewBox="0 0 1024 1024" version="1.1" xmlns="http://www.w3.org/2000/svg" p-id="2659" width="200" height="200"><path d="M71.51584 543.872c-0.064 0.896-0.064 1.6896-0.064 2.5728 0 78.1696 26.624 185.9968 153.664 230.4384 135.2256 47.1872 472.3584 83.4816 462.9312 80.2944 0.064 0 0.7552 0.0896 1.0304 0.0896 4.6784 0.2688 9.3632 0.448 14.112 0.448 149.4016 0 270.5856-140.7616 270.5856-314.4576a362.848 362.848 0 0 0-3.4432-50.112v-0.256z" fill="#F35151" p-id="2660"></path><path d="M703.18944 867.3152c-4.9344 0-9.792-0.192-14.656-0.4608l-0.1792-0.0128a524.736 524.736 0 0 1-55.7824-5.2672 4329.6192 4329.6192 0 0 1-128.2304-16.896c-89.9264-13.2224-211.9168-34.1376-282.3872-58.7264C82.65184 737.216 61.85184 614.976 61.85184 546.4448c0-1.1456 0.0064-2.176 0.096-3.3088a9.6 9.6 0 0 1 9.024-8.8448l898.816-50.9888a9.6 9.6 0 0 1 10.1312 9.1008 373.8688 373.8688 0 0 1 3.456 50.8544c0 178.688-125.696 324.0576-280.192 324.0576z m-14.656-19.7184c0.2112 0.0128 0.4672 0.0256 0.7616 0.064 4.8256 0.2816 9.3248 0.448 13.888 0.448 143.9168 0 260.992-136.7552 260.992-304.8512a356.32 356.32 0 0 0-2.272-40.2752L81.10944 552.9472c1.4336 76.5696 28.864 173.4848 147.1744 214.8736 126.2464 44.0512 430.4 78.752 457.92 79.9232a9.6576 9.6576 0 0 1 2.3296-0.1472z" p-id="2661"></path><path d="M710.16544 186.2592c-52.6144 0-67.3408 7.744-112 34.0032-101.952 59.9552-92.64 88.5568-209.088 134.752-68.2688 27.0784-187.552-6.1248-259.0592 24.2816C92.21984 395.3664 64.84064 450.0224 64.84064 503.7952c0 78.176 27.2 186.0416 157.024 230.4448 138.112 47.2384 482.5152 83.4752 472.8832 80.3712-0.3328-0.1024 0.6848 0.0192 1.024 0.0384q7.1552 0.416 14.3936 0.4288c152.6528 0 276.3968-140.768 276.3968-314.4128s-123.744-314.4064-276.3968-314.4064z" fill="#FFDABC" p-id="2662"></path><path d="M710.16544 824.672c-4.864 0-9.8304-0.1408-14.7456-0.4224a532.096 532.096 0 0 1-57.2288-5.2736 4530.8224 4530.8224 0 0 1-130.9824-16.9024c-91.8912-13.2224-216.5312-34.1504-288.448-58.752-142.272-48.6656-163.52-170.9568-163.52-239.5264 0-58.7904 30.528-116.1152 71.0208-133.3312 38.6688-16.448 89.5232-15.232 138.7072-14.0608 45.888 1.1072 89.2096 2.1248 120.576-10.3168 66.8288-26.5088 90.4192-46.3232 120.2752-71.4048a574.0416 574.0416 0 0 1 87.488-62.6944c46.6368-27.4176 62.5024-35.328 116.864-35.328 157.696 0 285.9968 145.3504 285.9968 324.0064s-128.3008 324.0064-286.0032 324.0064z m-15.2256-19.6736c0.4224 0 0.8512 0.0192 1.3056 0.064 4.672 0.2752 9.28 0.416 13.92 0.416 147.1104 0 266.7968-136.736 266.7968-304.8064s-119.68-304.8064-266.7968-304.8064c-49.664 0-62.1632 6.24-107.1296 32.6784a557.5232 557.5232 0 0 0-84.8704 60.8448c-29.952 25.1584-55.8208 46.8928-125.5488 74.5472-34.9952 13.888-80.2304 12.8064-128.1088 11.6608-47.1424-1.1264-95.8912-2.2848-130.7392 12.5376-33.2672 14.144-59.328 64.96-59.328 115.6608 0 77.4912 26.112 178.8096 150.528 221.3632 128.6272 43.9936 439.904 78.8352 467.9552 80.0128a11.4368 11.4368 0 0 1 2.0224-0.1728z" p-id="2663"></path><path d="M694.86944 246.176c-55.0464 4.0832-76.6976 35.6672-105.2672 74.9504-53.8816 74.0864-2.432 124.448-37.728 195.904-42.1504 85.3376-3.7824 209.024 113.6704 246.3552 124.9536 39.712 279.392-106.9056 279.392-252.8896s-112.256-274.5408-250.0672-264.32z" fill="#F35151" p-id="2664"></path><path d="M708.39904 779.4688a150.72 150.72 0 0 1-45.76-6.9312 192.7488 192.7488 0 0 1-121.76-108.5248 183.616 183.616 0 0 1 2.3936-151.232c14.816-29.9904 13.184-55.8528 11.456-83.2256-2.1888-34.7456-4.4544-70.6624 27.1168-114.0736l2.0608-2.8352c27.9552-38.4896 52.096-71.7248 110.2528-76.0384a224.3584 224.3584 0 0 1 170.0672 62.176 292.8576 292.8576 0 0 1 90.304 211.712c0 82.2016-47.6864 170.1952-121.4912 224.1856-40.2176 29.4144-83.7632 44.7872-124.64 44.7872z m-12.8192-523.712c-49.28 3.648-68.928 30.72-96.1408 68.1728l-2.0672 2.8416c-27.5008 37.8112-25.5488 68.7808-23.4816 101.568 1.8112 28.6912 3.68 58.3552-13.408 92.9472a164.1984 164.1984 0 0 0-1.9392 135.2128 173.8176 173.8176 0 0 0 109.9136 97.7408c46.6624 14.848 102.5152 2.048 153.248-35.0592 69.024-50.496 113.632-132.4032 113.632-208.6784a273.344 273.344 0 0 0-84.1792-197.6448 205.1904 205.1904 0 0 0-155.584-57.1008z" p-id="2665"></path><path d="M740.11744 493.76a55.2576 48.576 90 1 0 97.152 0 55.2576 48.576 90 1 0-97.152 0Z" fill="#FFFBF2" p-id="2666"></path><path d="M788.69984 457.696c16.192 0 29.376 16.1792 29.376 36.064s-13.184 36.0576-29.376 36.0576-29.3824-16.1792-29.3824-36.0576 13.184-36.064 29.376-36.064m0-19.2c-26.8288 0-48.576 24.7424-48.576 55.264s21.7472 55.2576 48.576 55.2576 48.576-24.7424 48.576-55.2576-21.7472-55.264-48.576-55.264z" p-id="2667"></path><path d="M389.49984 403.3664c-25.3824 10.0928-71.8272 13.9712-102.6368 13.1904-34.5536 3.0272-199.0784-28.1472-180.6592 111.3728 17.92 136.064 200.6208 170.3232 290.112 193.9648 138.976 36.736 138.1312-37.9776 113.8752-70.1184-52.7872-70.112 9.4912-141.2864 19.4752-180.3328 13.1456-51.52 15.744-87.104-7.0336-105.5232-12.864-10.3552-39.1296-7.2384-59.5392 1.6832a752.7168 752.7168 0 0 1-73.6 35.7632z" fill="#F35151" p-id="2668"></path><path d="M461.00064 741.376a266.7968 266.7968 0 0 1-67.136-10.2016 2226.784 2226.784 0 0 0-23.808-6.0928C274.28064 700.928 113.97984 660.48 96.68064 529.1776c-4.896-37.1136 2.1824-66.4128 21.0496-87.0912 36.2368-39.7248 104.9792-37.0112 146.048-35.392 9.4656 0.384 17.6384 0.704 22.2464 0.3008a10.336 10.336 0 0 1 1.0816-0.0384c31.4624 0.7808 75.5328-3.2384 98.8416-12.512l0.0128-0.0064a748.0512 748.0512 0 0 0 72.4544-35.2192 8.96 8.96 0 0 1 0.832-0.416c22.5408-9.8496 52.736-13.7856 69.408-0.3584 27.3472 22.1056 23.8976 62.112 10.3104 115.3728a205.3568 205.3568 0 0 1-14.7904 35.4624c-19.0528 39.3472-42.7648 88.32-6.3168 136.7232 13.5168 17.9072 21.1968 47.424 6.112 69.888-8.704 12.9664-26.5472 25.4848-62.976 25.4848zM233.52544 425.152c-35.6544 0-78.3744 4.4032-101.6128 29.8752-14.8672 16.3008-20.3136 40.4032-16.192 71.6416 15.5904 118.3872 167.9808 156.8256 259.0336 179.7952 8.5376 2.1568 16.5952 4.1856 24.0064 6.144 77.056 20.3648 101.536 4.0896 109.2672-7.424 9.312-13.8624 4.1152-34.88-5.504-47.6288-43.5008-57.7728-14.688-117.2736 4.3712-156.64a194.8352 194.8352 0 0 0 13.4656-31.8464c13.92-54.5472 12.8256-82.272-3.7632-95.68-8.3712-6.7456-29.952-5.4912-49.248 2.8352a746.9248 746.9248 0 0 1-74.304 36.064c-26.752 10.6432-73.472 14.6304-105.9136 13.8816a238.3616 238.3616 0 0 1-24.1088-0.2816 732.9344 732.9344 0 0 0-29.504-0.7424z" p-id="2669"></path><path d="M156.13664 521.9456a9.6192 9.6192 0 0 1-9.4272-11.4752c0.1408-0.7104 0.256-1.536 0.3904-2.432 4.352-29.2992 26.4448-62.9376 159.7888-62.9376a9.6 9.6 0 1 1 0 19.2c-133.888 0-138.9056 33.824-140.7936 46.56-0.1856 1.2416-0.3584 2.368-0.5504 3.3472a9.6 9.6 0 0 1-9.408 7.7376z" fill="#FFFFFF" p-id="2670"></path></svg>