<svg t="1628668130793" class="icon" viewBox="0 0 1024 1024" version="1.1" xmlns="http://www.w3.org/2000/svg" p-id="2962" width="200" height="200"><path d="M818.24864 234.8352c109.0304 49.5808 177.6064 114.4064 163.6288 163.2448-4.672 16.4224-18.304 29.44-38.784 38.88a9.0688 9.0688 0 0 0-4.8512 5.5872l-53.952 188.8" fill="#F3BB78" p-id="2963"></path><path d="M884.30304 640.9408a9.6 9.6 0 0 1-9.2416-12.2368l53.952-188.8a18.7712 18.7712 0 0 1 9.984-11.6288c18.592-8.576 29.888-19.5968 33.6512-32.8192 11.904-41.6128-53.216-104.064-158.3744-151.8848a9.6 9.6 0 0 1 7.9488-17.472c117.6448 53.4976 183.936 122.0416 168.8896 174.624-5.3632 18.8416-20.1728 33.9648-44.0064 44.9472l-53.5808 188.3072a9.6 9.6 0 0 1-9.2224 6.9632z" p-id="2964"></path><path d="M823.31104 265.408c90.0736 47.008 144.0256 103.7056 131.488 147.5648-4.672 16.4224-18.304 29.44-38.7904 38.8736a9.0688 9.0688 0 0 0-4.8512 5.5936l-35.296 123.4496v0.0384" fill="#ECBA56" p-id="2965"></path><path d="M875.86144 590.5088a9.5872 9.5872 0 0 1-9.6-9.5808 9.9648 9.9648 0 0 1 0.3712-2.6816l35.296-123.4432a18.7712 18.7712 0 0 1 9.9712-11.6352c18.6048-8.5632 29.8944-19.584 33.664-32.8192 10.624-37.1776-39.104-90.72-126.6944-136.4224a9.6 9.6 0 1 1 8.8832-17.024c98.976 51.648 149.92 110.976 136.2752 158.7072-5.3696 18.8544-20.1728 33.984-44.0064 44.96l-34.8608 122.72a9.6192 9.6192 0 0 1-9.2992 7.2192z" p-id="2966"></path><path d="M234.77984 402.88v-0.0448l-29.7856-178.656a8.6848 8.6848 0 0 1 7.1616-10.048l195.648-32.5888a0.16 0.16 0 0 1 0.128-0.0448l101.5232-16.9024h0.128l280.2688-46.7392a8.8128 8.8128 0 0 1 10.0864 7.2064l18.304 109.7728 5.0688 30.5792 9.6576 57.9648v0.0448" fill="#ECE556" p-id="2967"></path><path d="M234.77984 412.4608a9.5872 9.5872 0 0 1-9.5296-8.384l-29.728-178.3168a18.2848 18.2848 0 0 1 15.0656-21.1008l195.1808-32.512 0.5888-0.1152 101.5232-16.9024a9.728 9.728 0 0 1 0.64-0.0896l279.7568-46.656a18.5152 18.5152 0 0 1 21.12 15.0336l33.0432 198.3872a9.504 9.504 0 0 1 0.128 1.5744 9.6 9.6 0 0 1-19.1296 1.2288l-32.832-197.1456-279.4432 46.6048a9.728 9.728 0 0 1-0.64 0.0832l-100.5056 16.7424-0.64 0.128-194.7776 32.4288 29.6512 177.8112a9.6192 9.6192 0 0 1-9.472 11.2zM214.44704 222.528z" p-id="2968"></path><path d="M856.07264 462.1184l19.7888 118.7712v0.0384l8.4352 50.4128 40.4032 242.6048a8.7168 8.7168 0 0 1-7.168 10.048l-211.328 35.2128-10.1376 1.7024-22.9312 3.84h-0.0448l-333.2928 55.5264a8.7488 8.7488 0 0 1-10.048-7.2128l-25.6-153.76" fill="#ECE556" p-id="2969"></path><path d="M338.33184 989.9904a18.368 18.368 0 0 1-18.0544-15.36l-25.6-153.7536a9.6 9.6 0 1 1 18.944-3.1488l25.4592 152.9344 332.4288-55.3792 0.3648-0.0576 243.2128-40.5504-48.6912-292.16-0.0576-0.3712-19.7312-118.4512a9.6 9.6 0 1 1 18.9376-3.1488l19.7888 118.7712a6.1568 6.1568 0 0 1 0.0512 0.3584l48.7872 292.7104a18.336 18.336 0 0 1-15.0656 21.0816l-244.384 40.7616-0.384 0.0512-332.9664 55.4624a18.5728 18.5728 0 0 1-3.04 0.2496z" p-id="2970"></path><path d="M804.92384 647.3984c12.1792 16.1088 30.6304 18.368 30.6304 60.9984 0 53.8112-28.48 101.7472-83.8272 101.7472h-1.1648" fill="#EE6A54" p-id="2971"></path><path d="M751.72704 819.744h-1.0944a9.6 9.6 0 0 1-0.064-19.2h1.152c51.2832 0 74.2336-46.2784 74.2336-92.1472 0-27.52-7.6672-34.5216-17.376-43.392a85.9712 85.9712 0 0 1-11.3088-11.8208 9.6 9.6 0 0 1 15.3152-11.5776 69.568 69.568 0 0 0 8.9408 9.216c11.072 10.112 23.6288 21.5808 23.6288 57.5744 0 65.5616-38.4192 111.3472-93.4272 111.3472z" p-id="2972"></path><path d="M294.87584 221.3312c49.6832-39.0528 179.6608-40.9856 321.6896-0.384 170.1824 48.6528 293.3312 139.904 275.0336 203.8912-4.704 16.4288-18.304 29.4464-38.7968 38.8544a8.9152 8.9152 0 0 0-4.832 5.6064l-21.5872 75.456-26.4192 92.672-22.88 79.84-28.9984 101.6896h-0.064l-25.1968 88.2816a8.576 8.576 0 0 1-3.1552 4.576h-0.064l-2.4512 1.3504-24.6144 13.536-0.32 0.192-1.4848 0.832" fill="#F3BB78" p-id="2973"></path><path d="M690.74784 937.3312a9.6 9.6 0 0 1-4.736-17.9584l1.472-0.8384 26.2528-14.4512 25.0496-87.7696a9.7408 9.7408 0 0 1 0.3648-1.0368l99.584-348.6144a18.5152 18.5152 0 0 1 9.9712-11.648c18.5664-8.5248 29.8624-19.552 33.664-32.8192 7.552-26.432-15.5264-61.9072-63.3216-97.344-51.04-37.824-123.8848-71.4496-205.12-94.6752-135.9104-38.8416-264.6592-39.3856-313.12-1.2928a9.6 9.6 0 0 1-11.8656-15.104c53.8304-42.304 186.56-43.1424 330.2592-2.0672 83.4048 23.8464 158.4384 58.5472 211.2768 97.7152 55.392 41.0624 80.384 82.9824 70.3488 118.048-5.408 18.8992-20.2176 34.016-44.0192 44.9408l-99.488 349.1712a8.768 8.768 0 0 1-0.3648 1.0432l-24.896 87.2448a18.176 18.176 0 0 1-6.6624 9.6512 9.4464 9.4464 0 0 1-1.792 1.0496l-28.1472 15.5136a9.5616 9.5616 0 0 1-4.7168 1.2416z m22.8288-32.672v0.0192z" p-id="2974"></path><path d="M390.85664 192.5056l0.0448-0.0384h0.1344" fill="#F3BB78" p-id="2975"></path><path d="M390.86944 202.08a9.5872 9.5872 0 0 1-6.7968-16.3584l0.0448-0.0448a9.6192 9.6192 0 1 1 7.4752 16.3712 10.0032 10.0032 0 0 1-0.7232 0.032zM509.58944 174.1952a9.6576 9.6576 0 0 1-9.664-9.6 9.5424 9.5424 0 0 1 9.536-9.6h0.0384a9.6 9.6 0 0 1 0.0896 19.2z" p-id="2976"></path><path d="M407.93824 181.504a0.16 0.16 0 0 0-0.128 0.0384" fill="#F3BB78" p-id="2977"></path><path d="M407.80384 191.1488a9.6 9.6 0 0 1-6.784-16.384 9.952 9.952 0 0 1 6.9184-2.8608 9.6256 9.6256 0 0 1-0.128 19.2448z" p-id="2978"></path><path d="M826.38304 544.7552a125.4848 125.4848 0 0 1 3.6736 119.1552v0.064a119.7056 119.7056 0 0 1-52.9728 53.2928" fill="#EE6A54" p-id="2979"></path><path d="M777.09024 726.8672a9.6 9.6 0 0 1-4.3008-18.1888 110.5024 110.5024 0 0 0 48.4096-48.4608c0.0896-0.224 0.1856-0.4352 0.2944-0.64a113.7088 113.7088 0 0 0 12.2368-51.8016 115.0464 115.0464 0 0 0-15.6288-58.1632 9.6 9.6 0 0 1 16.5632-9.7152 134.272 134.272 0 0 1 18.2656 67.8784 132.736 132.736 0 0 1-14.0032 59.8528 9.728 9.728 0 0 1-0.3008 0.6656 129.888 129.888 0 0 1-57.248 57.5552 9.5744 9.5744 0 0 1-4.288 1.0176z m52.9664-62.8928z" p-id="2980"></path><path d="M864.53344 439.7184c-4.704 16.4352-18.368 29.3888-38.7968 38.8608a8.7296 8.7296 0 0 0-4.832 5.6064l-11.0208 38.592-30.2208 105.7536-83.968 293.5936a8.6784 8.6784 0 0 1-3.1616 4.576l-0.32 0.192-1.4784 0.832a8.512 8.512 0 0 1-5.7984 0.384l-546.5856-156.1344a8.8 8.8 0 0 1-5.9968-10.8224l126.24-441.8048a8.6272 8.6272 0 0 0-0.896-6.8992c-10.1888-17.2032-13.7344-33.7664-9.408-48.8448 5.28-18.432 21.7088-32.608 46.592-42.272 61.2736-23.7824 173.5296-20.1088 294.6176 14.496 170.1888 48.6528 293.2672 139.904 275.0336 203.8912z" fill="#ECBA56" p-id="2981"></path><path d="M687.29824 938.0608a18.1632 18.1632 0 0 1-5.0496-0.7296l-546.5344-156.1216a18.496 18.496 0 0 1-12.608-22.6304L249.26304 317.056c-11.7248-19.936-15.1552-38.8032-10.208-56.096 5.9584-20.7872 24.064-37.5872 52.3392-48.576 65.6768-25.472 180.9152-20.032 300.736 14.2144 177.9072 50.8672 301.6128 145.632 281.632 215.7568v0.0128c-5.3504 18.6944-20.0576 33.7664-43.7248 44.8l-125.1072 437.5936a18.368 18.368 0 0 1-6.6944 9.664 10.9248 10.9248 0 0 1-0.7488 0.4992l-2.0288 1.1648c-0.3008 0.1664-0.6144 0.32-0.9344 0.4608a18.208 18.208 0 0 1-7.2256 1.5104zM141.81984 762.9824l545.1072 155.712 124.7552-437.1456a18.3744 18.3744 0 0 1 10.0608-11.6992c18.4896-8.576 29.792-19.6032 33.5616-32.768 14.656-51.4816-89.7024-140.928-268.4416-192.0256-114.24-32.6464-227.4816-38.4448-288.512-14.784-22.784 8.8576-36.5312 20.9664-40.832 35.968-3.456 12.096-0.6208 25.9968 8.448 41.312a18.2592 18.2592 0 0 1 1.8176 14.592z m722.72-323.264z m-615.168-123.008l-0.0064 0.0192z" p-id="2982"></path><path d="M197.88384 713.92a9.792 9.792 0 0 1-2.624-0.3648 9.6064 9.6064 0 0 1-6.6176-11.8592l96.992-342.2272a9.6 9.6 0 1 1 18.4768 5.2416l-96.992 342.2272a9.6 9.6 0 0 1-9.2288 6.976z" fill="#FFFFFF" p-id="2983"></path></svg>